<?xml version="1.0" encoding="UTF-8" standalone="no"?>
<svg
   xmlns:dc="http://purl.org/dc/elements/1.1/"
   xmlns:cc="http://creativecommons.org/ns#"
   xmlns:rdf="http://www.w3.org/1999/02/22-rdf-syntax-ns#"
   xmlns:svg="http://www.w3.org/2000/svg"
   xmlns="http://www.w3.org/2000/svg"
   xmlns:sodipodi="http://sodipodi.sourceforge.net/DTD/sodipodi-0.dtd"
   xmlns:inkscape="http://www.inkscape.org/namespaces/inkscape"
   viewBox="0 0 650 400"
   version="1.1"
   id="svg2"
   inkscape:version="0.48.3.1 r9886"
   width="100%"
   height="100%"
   sodipodi:docname="fixed_point_x_cube _withdots.svg">
  <metadata
     id="metadata63">
    <rdf:RDF>
      <cc:Work
         rdf:about="">
        <dc:format>image/svg+xml</dc:format>
        <dc:type
           rdf:resource="http://purl.org/dc/dcmitype/StillImage" />
      </cc:Work>
    </rdf:RDF>
  </metadata>
  <defs
     id="defs61" />
  <sodipodi:namedview
     pagecolor="#ffffff"
     bordercolor="#666666"
     borderopacity="1"
     objecttolerance="10"
     gridtolerance="10"
     guidetolerance="10"
     inkscape:pageopacity="0"
     inkscape:pageshadow="2"
     inkscape:window-width="1920"
     inkscape:window-height="1009"
     id="namedview59"
     showgrid="false"
     inkscape:zoom="1.0215385"
     inkscape:cx="-85.118402"
     inkscape:cy="122.55659"
     inkscape:window-x="0"
     inkscape:window-y="27"
     inkscape:window-maximized="1"
     inkscape:current-layer="svg2" />
  <clipPath
     id="box">
    <rect
       x="0"
       y="0"
       width="650"
       height="400"
       style="fill:none;stroke:none;"
       id="rect5" />
  </clipPath>
  <g
     clip-path="url(#box)"
     id="g7">
    <rect
       x="0.00"
       y="0.00"
       width="650.00"
       height="400.00"
       style="fill:#FFFFFF;stroke:none;"
       id="rect9" />
    <path
       d="M0.00 387.00 L650.00 387.00 M0.00 340.00 L650.00 340.00 M0.00 294.00 L650.00 294.00 M0.00 247.00 L650.00 247.00 M0.00 201.00 L650.00 201.00 M0.00 154.00 L650.00 154.00 M0.00 108.00 L650.00 108.00 M0.00 61.00 L650.00 61.00 M0.00 14.00 L650.00 14.00 M0.00 0.00 L0.00 400.00 M65.00 0.00 L65.00 400.00 M130.00 0.00 L130.00 400.00 M195.00 0.00 L195.00 400.00 M260.00 0.00 L260.00 400.00 M325.00 0.00 L325.00 400.00 M390.00 0.00 L390.00 400.00 M454.00 0.00 L454.00 400.00 M520.00 0.00 L520.00 400.00 M585.00 0.00 L585.00 400.00 M650.00 0.00 L650.00 400.00 "
       style="fill:none;stroke:#D0D0D0;stroke-width:1;"
       id="path11" />
    <path
       d="M325.00 0.00 L325.00 400.00 "
       style="fill:none;stroke:#000000;stroke-width:1;"
       id="path13" />
    <path
       d="M318.50 434.09 L331.50 434.09 M318.50 387.52 L331.50 387.52 M318.50 340.96 L331.50 340.96 M318.50 294.39 L331.50 294.39 M318.50 247.82 L331.50 247.82 M318.50 201.26 L331.50 201.26 M318.50 154.69 L331.50 154.69 M318.50 108.13 L331.50 108.13 M318.50 61.56 L331.50 61.56 M318.50 14.99 L331.50 14.99 "
       style="fill:none;stroke:#000000;stroke-width:1;"
       id="path15" />
    <path
       d="M0.00 201.26 L650.00 201.26 "
       style="fill:none;stroke:#000000;stroke-width:1;"
       id="path17" />
    <path
       d="M0.00 194.76 L0.00 207.76 M65.00 194.76 L65.00 207.76 M130.00 194.76 L130.00 207.76 M195.00 194.76 L195.00 207.76 M260.00 194.76 L260.00 207.76 M325.00 194.76 L325.00 207.76 M390.00 194.76 L390.00 207.76 M455.00 194.76 L455.00 207.76 M520.00 194.76 L520.00 207.76 M585.00 194.76 L585.00 207.76 M650.00 194.76 L650.00 207.76 "
       style="fill:none;stroke:#000000;stroke-width:1;"
       id="path19" />
    <text
       x="333.125"
       y="390.0232884292604"
       text-anchor="start"
       style="font:10px Droid Sans,Trebuchet MS,Arial,Helvetica,sans-serif;stroke:none;fill:#000000"
       id="text21">-2</text>
    <text
       x="333.125"
       y="343.45715969848646"
       text-anchor="start"
       style="font:10px Droid Sans,Trebuchet MS,Arial,Helvetica,sans-serif;stroke:none;fill:#000000"
       id="text23">-1.5</text>
    <text
       x="333.125"
       y="296.89103096771254"
       text-anchor="start"
       style="font:10px Droid Sans,Trebuchet MS,Arial,Helvetica,sans-serif;stroke:none;fill:#000000"
       id="text25">-1</text>
    <text
       x="333.125"
       y="250.3249022369386"
       text-anchor="start"
       style="font:10px Droid Sans,Trebuchet MS,Arial,Helvetica,sans-serif;stroke:none;fill:#000000"
       id="text27">-0.5</text>
    <text
       x="333.125"
       y="203.75877350616466"
       text-anchor="start"
       style="font:10px Droid Sans,Trebuchet MS,Arial,Helvetica,sans-serif;stroke:none;fill:#000000"
       id="text29">0</text>
    <text
       x="333.125"
       y="157.19264477539073"
       text-anchor="start"
       style="font:10px Droid Sans,Trebuchet MS,Arial,Helvetica,sans-serif;stroke:none;fill:#000000"
       id="text31">0.5</text>
    <text
       x="333.125"
       y="110.62651604461678"
       text-anchor="start"
       style="font:10px Droid Sans,Trebuchet MS,Arial,Helvetica,sans-serif;stroke:none;fill:#000000"
       id="text33">1</text>
    <text
       x="333.125"
       y="64.06038731384285"
       text-anchor="start"
       style="font:10px Droid Sans,Trebuchet MS,Arial,Helvetica,sans-serif;stroke:none;fill:#000000"
       id="text35">1.5</text>
    <text
       x="333.125"
       y="17.4942585830689"
       text-anchor="start"
       style="font:10px Droid Sans,Trebuchet MS,Arial,Helvetica,sans-serif;stroke:none;fill:#000000"
       id="text37">2</text>
    <text
       x="65"
       y="217.38377350616466"
       text-anchor="middle"
       style="font:10px Droid Sans,Trebuchet MS,Arial,Helvetica,sans-serif;stroke:none;fill:#000000"
       id="text39">-4</text>
    <text
       x="130"
       y="217.38377350616466"
       text-anchor="middle"
       style="font:10px Droid Sans,Trebuchet MS,Arial,Helvetica,sans-serif;stroke:none;fill:#000000"
       id="text41">-3</text>
    <text
       x="195"
       y="217.38377350616466"
       text-anchor="middle"
       style="font:10px Droid Sans,Trebuchet MS,Arial,Helvetica,sans-serif;stroke:none;fill:#000000"
       id="text43">-2</text>
    <text
       x="260"
       y="217.38377350616466"
       text-anchor="middle"
       style="font:10px Droid Sans,Trebuchet MS,Arial,Helvetica,sans-serif;stroke:none;fill:#000000"
       id="text45">-1</text>
    <text
       x="325"
       y="217.38377350616466"
       text-anchor="middle"
       style="font:10px Droid Sans,Trebuchet MS,Arial,Helvetica,sans-serif;stroke:none;fill:#000000"
       id="text47">0</text>
    <text
       x="390"
       y="217.38377350616466"
       text-anchor="middle"
       style="font:10px Droid Sans,Trebuchet MS,Arial,Helvetica,sans-serif;stroke:none;fill:#000000"
       id="text49">1</text>
    <text
       x="454.99999999999994"
       y="217.38377350616466"
       text-anchor="middle"
       style="font:10px Droid Sans,Trebuchet MS,Arial,Helvetica,sans-serif;stroke:none;fill:#000000"
       id="text51">2</text>
    <text
       x="520"
       y="217.38377350616466"
       text-anchor="middle"
       style="font:10px Droid Sans,Trebuchet MS,Arial,Helvetica,sans-serif;stroke:none;fill:#000000"
       id="text53">3</text>
    <text
       x="585"
       y="217.38377350616466"
       text-anchor="middle"
       style="font:10px Droid Sans,Trebuchet MS,Arial,Helvetica,sans-serif;stroke:none;fill:#000000"
       id="text55">4</text>
    <path
       d="M241.31 400.01 L241.32 400.00 L241.46 399.00 L241.60 398.00 L241.74 397.01 L241.88 396.01 L242.02 395.01 L242.16 394.02 L242.31 393.02 L242.45 392.03 L242.59 391.03 L242.74 390.03 L242.88 389.04 L243.03 388.04 L243.18 387.04 L243.32 386.05 L243.47 385.05 L243.62 384.05 L243.76 383.06 L243.91 382.06 L244.06 381.06 L244.21 380.07 L244.36 379.07 L244.51 378.08 L244.67 377.08 L244.82 376.08 L244.97 375.09 L245.12 374.09 L245.28 373.09 L245.43 372.10 L245.59 371.10 L245.74 370.11 L245.90 369.11 L246.05 368.11 L246.21 367.12 L246.37 366.12 L246.53 365.13 L246.69 364.13 L246.85 363.13 L247.01 362.14 L247.17 361.14 L247.33 360.15 L247.49 359.15 L247.66 358.15 L247.82 357.16 L247.99 356.16 L248.15 355.17 L248.32 354.17 L248.48 353.18 L248.65 352.18 L248.82 351.19 L248.99 350.19 L249.16 349.19 L249.33 348.20 L249.50 347.20 L249.67 346.21 L249.85 345.21 L250.02 344.22 L250.19 343.22 L250.37 342.23 L250.55 341.23 L250.72 340.24 L250.90 339.24 L251.08 338.24 L251.26 337.25 L251.44 336.25 L251.62 335.26 L251.80 334.26 L251.98 333.27 L252.17 332.27 L252.35 331.28 L252.54 330.28 L252.73 329.29 L252.91 328.29 L253.10 327.30 L253.29 326.31 L253.48 325.31 L253.67 324.32 L253.87 323.32 L254.06 322.33 L254.26 321.33 L254.45 320.34 L254.65 319.34 L254.85 318.35 L255.05 317.35 L255.25 316.36 L255.45 315.37 L255.65 314.37 L255.85 313.38 L256.06 312.38 L256.26 311.39 L256.47 310.40 L256.68 309.40 L256.89 308.41 L257.10 307.41 L257.31 306.42 L257.53 305.43 L257.74 304.43 L257.96 303.44 L258.18 302.45 L258.40 301.45 L258.62 300.46 L258.84 299.47 L259.06 298.47 L259.29 297.48 L259.52 296.49 L259.74 295.49 L259.97 294.50 L260.21 293.51 L260.44 292.51 L260.67 291.52 L260.91 290.53 L261.15 289.54 L261.39 288.54 L261.63 287.55 L261.88 286.56 L262.12 285.57 L262.37 284.57 L262.62 283.58 L262.87 282.59 L263.12 281.60 L263.38 280.61 L263.64 279.61 L263.90 278.62 L264.16 277.63 L264.42 276.64 L264.69 275.65 L264.96 274.66 L265.23 273.67 L265.51 272.68 L265.78 271.68 L266.06 270.69 L266.34 269.70 L266.63 268.71 L266.91 267.72 L267.20 266.73 L267.50 265.74 L267.79 264.75 L268.09 263.76 L268.39 262.77 L268.70 261.78 L269.01 260.80 L269.32 259.81 L269.63 258.82 L269.95 257.83 L270.27 256.84 L270.60 255.85 L270.93 254.86 L271.27 253.88 L271.60 252.89 L271.95 251.90 L272.29 250.91 L272.64 249.93 L273.00 248.94 L273.36 247.95 L273.73 246.97 L274.10 245.98 L274.48 245.00 L274.86 244.01 L275.25 243.03 L275.64 242.04 L276.04 241.06 L276.45 240.08 L276.86 239.09 L277.28 238.11 L277.71 237.13 L278.14 236.15 L278.59 235.16 L279.04 234.18 L279.50 233.20 L279.97 232.22 L280.45 231.24 L280.94 230.27 L281.44 229.29 L281.95 228.31 L282.48 227.33 L283.01 226.36 L283.56 225.38 L284.13 224.41 L284.71 223.44 L285.31 222.47 L285.92 221.50 L286.55 220.53 L287.21 219.56 L287.89 218.60 L288.59 217.63 L289.31 216.67 L290.07 215.71 L290.86 214.76 L291.68 213.80 L292.55 212.85 L293.45 211.90 L294.41 210.96 L295.43 210.02 L296.52 209.09 L297.69 208.17 L298.95 207.25 L300.33 206.35 L301.86 205.46 L303.58 204.59 L305.56 203.75 L307.56 203.06 L309.56 202.51 L311.56 202.08 L313.56 201.77 L315.56 201.54 L317.56 201.40 L319.56 201.31 L321.56 201.27 L323.56 201.26 L325.56 201.26 L327.56 201.25 L329.56 201.23 L331.56 201.16 L333.56 201.05 L335.56 200.86 L337.56 200.59 L339.56 200.21 L341.56 199.72 L343.56 199.09 L345.56 198.31 L347.56 197.37 L349.56 196.24 L351.33 195.07 L352.84 193.94 L354.18 192.83 L355.39 191.74 L356.50 190.66 L357.53 189.59 L358.48 188.53 L359.39 187.47 L360.24 186.42 L361.05 185.37 L361.83 184.32 L362.57 183.28 L363.28 182.24 L363.96 181.21 L364.62 180.17 L365.26 179.14 L365.87 178.11 L366.47 177.08 L367.05 176.05 L367.61 175.02 L368.16 173.99 L368.70 172.97 L369.22 171.94 L369.73 170.92 L370.22 169.90 L370.71 168.87 L371.18 167.85 L371.65 166.83 L372.11 165.81 L372.55 164.79 L372.99 163.77 L373.42 162.76 L373.85 161.74 L374.26 160.72 L374.67 159.70 L375.07 158.69 L375.47 157.67 L375.86 156.66 L376.24 155.64 L376.62 154.63 L376.99 153.61 L377.35 152.60 L377.71 151.58 L378.07 150.57 L378.42 149.56 L378.77 148.54 L379.11 147.53 L379.45 146.52 L379.78 145.50 L380.11 144.49 L380.44 143.48 L380.76 142.47 L381.08 141.46 L381.39 140.45 L381.70 139.43 L382.01 138.42 L382.31 137.41 L382.61 136.40 L382.91 135.39 L383.21 134.38 L383.50 133.37 L383.79 132.36 L384.07 131.35 L384.36 130.34 L384.64 129.33 L384.91 128.32 L385.19 127.31 L385.46 126.30 L385.73 125.30 L386.00 124.29 L386.26 123.28 L386.53 122.27 L386.79 121.26 L387.05 120.25 L387.30 119.24 L387.56 118.24 L387.81 117.23 L388.06 116.22 L388.31 115.21 L388.55 114.20 L388.80 113.20 L389.04 112.19 L389.28 111.18 L389.52 110.17 L389.76 109.17 L389.99 108.16 L390.23 107.15 L390.46 106.14 L390.69 105.14 L390.92 104.13 L391.14 103.12 L391.37 102.12 L391.59 101.11 L391.82 100.10 L392.04 99.10 L392.26 98.09 L392.47 97.08 L392.69 96.08 L392.91 95.07 L393.12 94.06 L393.33 93.06 L393.54 92.05 L393.75 91.04 L393.96 90.04 L394.17 89.03 L394.37 88.03 L394.58 87.02 L394.78 86.02 L394.99 85.01 L395.19 84.00 L395.39 83.00 L395.59 81.99 L395.78 80.99 L395.98 79.98 L396.18 78.98 L396.37 77.97 L396.56 76.96 L396.76 75.96 L396.95 74.95 L397.14 73.95 L397.33 72.94 L397.52 71.94 L397.70 70.93 L397.89 69.93 L398.08 68.92 L398.26 67.92 L398.44 66.91 L398.63 65.91 L398.81 64.90 L398.99 63.90 L399.17 62.89 L399.35 61.89 L399.53 60.88 L399.70 59.88 L399.88 58.87 L400.06 57.87 L400.23 56.86 L400.41 55.86 L400.58 54.85 L400.75 53.85 L400.92 52.85 L401.09 51.84 L401.26 50.84 L401.43 49.83 L401.60 48.83 L401.77 47.82 L401.94 46.82 L402.10 45.81 L402.27 44.81 L402.43 43.81 L402.60 42.80 L402.76 41.80 L402.92 40.79 L403.09 39.79 L403.25 38.78 L403.41 37.78 L403.57 36.78 L403.73 35.77 L403.89 34.77 L404.05 33.76 L404.20 32.76 L404.36 31.76 L404.52 30.75 L404.67 29.75 L404.83 28.74 L404.98 27.74 L405.14 26.74 L405.29 25.73 L405.44 24.73 L405.59 23.73 L405.75 22.72 L405.90 21.72 L406.05 20.71 L406.20 19.71 L406.35 18.71 L406.50 17.70 L406.64 16.70 L406.79 15.70 L406.94 14.69 L407.09 13.69 L407.23 12.68 L407.38 11.68 L407.52 10.68 L407.67 9.67 L407.81 8.67 L407.95 7.67 L408.10 6.66 L408.24 5.66 L408.38 4.66 L408.52 3.65 L408.67 2.65 L408.81 1.65 L408.95 0.64 L409.09 -0.36 "
       style="fill:none;stroke:#000000;stroke-width:1;"
       id="path57" />
  </g>
  <path
     sodipodi:type="arc"
     style="fill:#ff0000;fill-opacity:1;stroke:#ff0000;stroke-opacity:1"
     id="path3040"
     sodipodi:cx="324.6329"
     sodipodi:cy="200.79066"
     sodipodi:rx="3.7932982"
     sodipodi:ry="3.6709337"
     d="m 328.4262,200.79066 a 3.7932982,3.6709337 0 1 1 -7.58659,0 3.7932982,3.6709337 0 1 1 7.58659,0 z"
     transform="translate(0.48945783,-0.24472892)" />
  <path
     transform="translate(65.262428,-92.996991)"
     sodipodi:type="arc"
     style="fill:#ff0000;fill-opacity:1;stroke:#ff0000;stroke-opacity:1"
     id="path3040-8"
     sodipodi:cx="324.6329"
     sodipodi:cy="200.79066"
     sodipodi:rx="3.7932982"
     sodipodi:ry="3.6709337"
     d="m 328.4262,200.79066 a 3.7932982,3.6709337 0 1 1 -7.58659,0 3.7932982,3.6709337 0 1 1 7.58659,0 z" />
  <path
     sodipodi:type="arc"
     style="fill:#ff0000;fill-opacity:1;stroke:#ff0000;stroke-opacity:1"
     id="path3040-0"
     sodipodi:cx="324.6329"
     sodipodi:cy="200.79066"
     sodipodi:rx="3.7932982"
     sodipodi:ry="3.6709337"
     d="m 328.4262,200.79066 a 3.7932982,3.6709337 0 1 1 -7.58659,0 3.7932982,3.6709337 0 1 1 7.58659,0 z"
     transform="translate(-64.241337,92.752257)" />
  <path
     style="fill:none;stroke:#000000;stroke-width:1.069;stroke-linecap:butt;stroke-linejoin:miter;stroke-opacity:0.42982456000000002;stroke-miterlimit:4;stroke-dasharray:4.276,2.138;stroke-dashoffset:0"
     d="M 187.74145,401.18927 462.99271,1.6157143"
     id="path3012"
     inkscape:connector-curvature="0" />
</svg>
